<svg version="1.2" xmlns="http://www.w3.org/2000/svg" viewBox="0 0 236 67" width="236" height="67"><defs><clipPath clipPathUnits="userSpaceOnUse" id="cp1"><path d="m-842-7724h1920v8118h-1920z" /></clipPath></defs><style>.s0{fill:#1e0b4b}.s1{fill:#ffffff}.s2{fill:#2a2a2d}</style><g clip-path="url(#cp1)"><path fill-rule="evenodd" class="s0" d="m61.1 33.6h-3.1c-1.4 0-2.6-0.8-3.3-2l-2.1-4h-13.5l-2.1 4c-0.7 1.2-2 2-3.3 2h-3.1c-1.5 0-2.3-1.5-1.7-2.8l15.3-28.5c0.7-1.3 2.6-1.3 3.3 0l15.3 28.5c0.6 1.3-0.3 2.8-1.7 2.8zm-11.4-11.4l-2.2-4.1c-0.7-1.3-2.6-1.3-3.3 0l-2.2 4.1z" /><path fill-rule="evenodd" class="s0" d="m202.6 33.6h-3.1c-1.4 0-2.6-0.8-3.3-2l-2.1-4h-13.5l-2.1 4c-0.7 1.2-1.9 2-3.3 2h-3.1c-1.4 0-2.3-1.5-1.6-2.8l15.2-28.5c0.7-1.3 2.6-1.3 3.3 0l15.3 28.5c0.6 1.3-0.3 2.8-1.7 2.8zm-11.4-11.4l-2.2-4.1c-0.7-1.3-2.6-1.3-3.3 0l-2.2 4.1z" /><path class="s0" d="m23.5 23.6c0 3.2-0.9 5.6-3 7.4c-1.9 1.8-4.3 2.7-7.3 2.7q-4.8-0.1-9.2-1.6c-3.4-1.1-3.8-2.8-3.8-4q0-0.1 0-0.2c0-0.1 0-0.2 0-0.4c0.1-1.3 0.4-2.3 0.8-3c4.9 2.1 8.4 3.1 10.8 3.1q0.3 0 0.6 0c3.1-0.2 4.7-1.3 4.7-3.1c0-1.1-0.4-2.6-2.6-3.6c-1.3-0.6-3.1-1.3-5.4-2c-2.9-1-3.6-1.5-3.7-1.7l-0.1-0.1l-0.1-0.1c-2.2-1.4-3.2-3.5-3.1-6.5c0.1-3 1-5.4 3-7.3c1.9-1.8 4.3-2.7 7.3-2.8c0.1 0 0.2 0 0.3 0q4.3 0 10.9 3c-0.2 0.7-0.4 1.5-0.6 2.2c-0.1 0.1-0.1 0.2-0.1 0.3c-0.5 1.2-1.2 2.2-2.2 2.2c-0.1 0-0.3 0-0.5 0c-3.7-1.3-6.3-2-8.1-2c-1.3 0-2.3 0.3-2.9 1c-0.3 0.4-0.7 1-0.6 2c0 1 0.5 2.4 2.5 3.5q1.9 1 5.4 2.3c2.7 0.9 3.6 1.4 3.9 1.6c2.1 1.6 3.1 4 3.1 7.1z" /><path class="s0" d="m97.8 1.4v29c0 1.7-0.5 3.2-3.7 3.2c-1.6 0-2.7-0.5-3.5-1.5l-11.4-13.6l-2.3-2.7v14.6c0 1.7-0.5 3.2-3.8 3.2h-3.8v-32.1h3.8h0.1c1.7 0 2.8 0.5 3.5 1.5v0.1l11.2 13.3l2.3 2.8v-14.6c0-1.7 0.5-3.2 3.8-3.2z" /><path class="s0" d="m129.3 23.6c0 3.2-0.9 5.6-3 7.4c-1.9 1.8-4.3 2.7-7.3 2.7c-3.1 0-6.3-0.6-9.2-1.6c-3.4-1.1-3.8-2.8-3.8-4q0-0.2 0-0.4c0-0.1 0-0.2 0-0.3q0.1-1.9 0.8-2.9c4.9 2.1 8.4 3.1 10.8 3.1q0.3 0 0.6 0c3.1-0.2 4.7-1.3 4.7-3.1c0-1.1-0.5-2.6-2.6-3.6q-2-0.9-5.4-2c-2.9-1-3.6-1.5-3.7-1.7l-0.1-0.1l-0.1-0.1c-2.2-1.4-3.2-3.6-3.2-6.6c0.1-3 1-5.4 3-7.2c1.9-1.9 4.3-2.8 7.3-2.9c0.1 0 0.2 0 0.3 0q4.3 0 10.9 3c-0.2 0.8-0.4 1.7-0.7 2.5c-0.1 0.1-0.1 0.2-0.1 0.3c-0.5 1.1-1.2 2-2 2c-0.2 0-0.3 0-0.6-0.1c-3.6-1.3-6.3-2-8.1-2c-1.3 0-2.2 0.3-2.8 1c-0.4 0.4-0.8 1-0.7 2.1c0 1 0.5 2.3 2.5 3.4q2 1.1 5.4 2.3c2.7 0.9 3.6 1.4 3.9 1.6c2.2 1.7 3.2 4.1 3.2 7.2z" /><path class="s0" d="m164.3 30.4c0 0.9-0.5 1.7-1.4 2.5q-1.1 1-2.3 1c-0.2 0-0.3 0-0.5-0.1c-1-0.1-2-0.7-2.9-1.9v-0.1l-9.8-10.9l-2.3-2.5v12c0 1.6-0.4 3.1-3.5 3.2c-0.1 0-0.2 0-0.3 0h-3.7v-32.1h7.6v15l2.2-2.5l9.8-10.9l0.1-0.1c0.9-1.2 1.9-1.8 2.9-1.9c0.1 0 0.3-0.1 0.4-0.1c0.8 0 1.6 0.3 2.3 1c0.1 0.1 0.2 0.2 0.2 0.2c0.1 0.1 0.1 0.2 0.2 0.3c0.6 0.6 0.9 1.3 1 2c0 0.9-0.4 1.8-1.3 2.8l-8.1 9.2l-0.8 0.9l0.7 0.9l8.2 9.2q1.4 1.7 1.3 2.9z" /><path fill-rule="evenodd" class="s0" d="m235.6 30.4c0 0.8-0.5 1.6-1.3 2.3c-0.9 0.7-1.8 1.1-2.8 1.1h-0.1c-0.9-0.1-1.9-0.7-3-1.9l-8-11l-2.4-3.2v12.7c0 1.6-0.4 3.1-3.6 3.1h-3.9v-32.1h15.3c2.4 0 4.4 0.9 6.1 2.8c1.7 2 2.5 4 2.5 6.2c0 4-1.5 6.8-4.6 8.6l-1.2 0.7l0.9 1.2l4.6 6.3v0.1c1 1.2 1.6 2.2 1.5 3.1zm-7.7-19.3c0-3.3-2.1-5.3-5.6-5.3h-4.3v10.5h4.3c3.5 0 5.6-1.9 5.6-5.2z" /><path fill-rule="evenodd" class="s1" d="m74.1 28.3c-0.2 0.3-0.4 0.5-0.8 0.6q-0.1 0.1-0.2 0.1q-0.1 0-0.2 0c0 0-0.1 0-0.2 0q-0.1 0-0.3-0.2c-0.3-0.1-0.6-0.3-0.7-0.7c-0.1-0.3-0.1-0.6 0.1-0.9c0.1-0.3 0.4-0.6 0.7-0.7c0.3 0 0.7 0 1 0.1c0.6 0.4 0.9 1.1 0.6 1.7zm-0.7-1.4q-0.2-0.1-0.5-0.1q-0.2 0-0.3 0q-0.4 0.2-0.5 0.5c-0.3 0.5-0.1 1.1 0.3 1.3c0.3 0.1 0.5 0.2 0.8 0.1q0.4-0.2 0.5-0.5c0.3-0.4 0.1-1-0.3-1.3z" /><path class="s1" d="m73.1 33.6h-0.4v-4.6h0.3z" /><path fill-rule="evenodd" class="s1" d="m142.5 26.4c-0.2 0.3-0.4 0.6-0.8 0.7q-0.1 0-0.2 0q-0.1 0-0.2 0c0 0-0.1 0-0.1 0q-0.2 0-0.4-0.1c-0.3-0.2-0.5-0.4-0.6-0.8c-0.1-0.3-0.1-0.6 0.1-0.9c0.1-0.3 0.4-0.5 0.7-0.6c0.3-0.1 0.6-0.1 0.9 0.1c0.7 0.3 0.9 1 0.6 1.6zm-0.7-1.3c-0.1-0.1-0.3-0.2-0.4-0.2c-0.1 0-0.2 0-0.3 0.1q-0.4 0.1-0.6 0.5c-0.2 0.4-0.1 1 0.4 1.3c0.2 0 0.5 0.1 0.7 0q0.4-0.1 0.6-0.5c0.3-0.5 0.1-1-0.4-1.2z" /><path class="s1" d="m141.5 33.6c-0.1 0-0.1 0-0.2 0h-0.1v-6.4h0.3z" /><path fill-rule="evenodd" class="s1" d="m215.3 26.4c-0.1 0.3-0.4 0.6-0.7 0.7q-0.2 0-0.3 0q-0.1 0-0.1 0c-0.1 0-0.1 0-0.2 0q-0.2 0-0.4-0.1c-0.3-0.2-0.5-0.4-0.6-0.8c-0.1-0.3-0.1-0.6 0.1-0.9c0.1-0.3 0.3-0.5 0.7-0.6c0.3-0.1 0.6-0.1 0.9 0.1c0.7 0.3 0.9 1 0.6 1.6zm-0.7-1.3q-0.2-0.2-0.4-0.2q-0.2 0-0.3 0.1q-0.4 0.1-0.6 0.5c-0.2 0.4-0.1 1 0.4 1.3c0.2 0 0.5 0.1 0.7 0q0.4-0.1 0.6-0.5c0.2-0.5 0-1-0.4-1.2z" /><path class="s1" d="m214.3 33.6h-0.3v-6.4h0.3z" /><path fill-rule="evenodd" class="s1" d="m113.7 29.6q-0.1 0.5-0.4 0.9c-0.5 0.5-1.3 0.5-1.8 0q-0.4-0.4-0.4-0.9c0-0.1 0-0.2 0-0.3q0.1 0 0.1-0.1c0-0.1 0-0.1 0.1-0.2q0.1-0.2 0.2-0.3q0.4-0.4 0.9-0.4c0.4-0.1 0.7 0.1 1 0.3c0.2 0.2 0.3 0.5 0.3 1zm-0.3 0.2c0 0 0-0.2 0-0.3c0-0.2-0.1-0.5-0.3-0.7c-0.4-0.3-1-0.3-1.3 0q-0.3 0.4-0.3 0.7c0 0.3 0.1 0.5 0.3 0.7c0.3 0.4 1 0.4 1.3 0q0.2-0.2 0.3-0.4z" /><path class="s1" d="m111.3 29l-0.1 0.3l-5.2-1.6c0-0.1 0-0.2 0-0.3z" /><path fill-rule="evenodd" class="s1" d="m6.7 29.4q0.1 0.5-0.3 0.9c-0.5 0.5-1.3 0.5-1.8 0q-0.4-0.4-0.4-0.9c0-0.1 0-0.2 0-0.3q0.1-0.1 0.1-0.1c0-0.1 0-0.2 0-0.2q0.2-0.2 0.3-0.3q0.4-0.4 0.9-0.4q0.5 0 0.9 0.4c0.3 0.2 0.4 0.5 0.3 0.9zm-0.3 0.2c0.1-0.1 0.1-0.2 0.1-0.3c0-0.2-0.2-0.5-0.3-0.6c-0.4-0.4-1-0.4-1.4 0c-0.2 0.1-0.3 0.4-0.3 0.7c0 0.2 0.2 0.4 0.4 0.6c0.3 0.4 0.9 0.4 1.3 0q0.2-0.1 0.2-0.4z" /><path class="s1" d="m4.4 28.8l-0.1 0.3l-4-1.2c0-0.1 0-0.2 0-0.3z" /><path fill-rule="evenodd" class="s1" d="m126.7 5.1c0.1 0.1 0 0.2 0 0.3c0 0 0 0.1 0 0.1c-0.1 0-0.1 0.1-0.1 0.2c-0.1 0.1-0.1 0.2-0.2 0.3q-0.4 0.4-0.9 0.4q-0.5 0-0.9-0.3q-0.4-0.4-0.4-0.9q0-0.6 0.3-1c0.5-0.5 1.3-0.5 1.8 0c0.2 0.2 0.4 0.5 0.4 0.9zm-0.3 0c0-0.2-0.2-0.5-0.3-0.7c-0.4-0.3-1-0.3-1.4 0.1q-0.1 0.2-0.2 0.4c0 0 0 0.2 0 0.3c0 0.2 0.1 0.4 0.3 0.6c0.4 0.4 1 0.4 1.3 0c0.2-0.2 0.3-0.5 0.3-0.7z" /><path class="s1" d="m128.6 5.9c0 0.1-0.1 0.2-0.1 0.3l-1.9-0.6l0.1-0.3z" /><path fill-rule="evenodd" class="s1" d="m19.7 4.4c0 0.1 0 0.2 0 0.3q-0.1 0-0.1 0.1c0 0.1 0 0.1 0 0.2c-0.1 0.1-0.2 0.2-0.3 0.3q-0.3 0.4-0.9 0.4q-0.5 0-0.9-0.3q-0.4-0.4-0.4-0.9q0-0.6 0.4-1c0.5-0.5 1.3-0.5 1.8 0c0.3 0.2 0.4 0.6 0.4 0.9zm-0.3 0c0-0.2-0.1-0.5-0.3-0.7c-0.4-0.3-1-0.3-1.4 0.1q-0.1 0.2-0.2 0.4c0 0 0 0.2 0 0.3c0 0.2 0.1 0.4 0.3 0.6c0.4 0.4 1 0.4 1.3 0q0.3-0.3 0.3-0.7z" /><path class="s1" d="m22.9 5.6c0 0.1 0 0.2-0.1 0.3l-3.2-0.9v-0.3z" /><path fill-rule="evenodd" class="s1" d="m95.3 8.3c-0.2 0.2-0.4 0.5-0.8 0.6c-0.3 0.1-0.6 0.1-0.9-0.1c-0.7-0.3-0.9-1.1-0.6-1.7c0.1-0.3 0.4-0.6 0.7-0.6c0.1 0 0.2-0.1 0.3-0.1q0.1 0 0.1 0c0.1 0 0.2 0 0.2 0q0.3 0 0.4 0.1c0.3 0.2 0.6 0.5 0.7 0.8q0.1 0.4-0.1 1zm-0.7-1.5c-0.2-0.1-0.5-0.2-0.8-0.1q-0.3 0.2-0.5 0.5c-0.3 0.5-0.1 1 0.4 1.3q0.1 0.1 0.4 0.1q0.2 0 0.3 0q0.4-0.2 0.6-0.5c0.2-0.5 0-1.1-0.4-1.3z" /><path class="s1" d="m94.3 6.4h-0.3v-5h0.3z" /><path fill-rule="evenodd" class="s1" d="m57.6 25.6c0 0.4-0.1 0.7-0.4 0.9c-0.1 0.1-0.1 0.1-0.2 0.2q-0.1 0-0.1 0.1c-0.1 0-0.2 0-0.2 0c-0.1 0.1-0.3 0.1-0.4 0.1c-0.4 0-0.7-0.1-0.9-0.4q-0.4-0.4-0.4-0.9c0-0.4 0.1-0.7 0.4-0.9q0.4-0.4 0.9-0.4c0.7 0 1.3 0.6 1.3 1.3zm-0.3 0c0-0.5-0.5-1-1-1c-0.1 0-0.3 0-0.4 0.1q-0.2 0.1-0.3 0.2c-0.2 0.2-0.3 0.4-0.3 0.6c0 0.6 0.4 1 1 1c0.2 0 0.5 0 0.7-0.2c0.1-0.2 0.3-0.4 0.3-0.7z" /><path class="s1" d="m60.4 33.6h-0.3l-3.4-6.8l0.3-0.1z" /><path fill-rule="evenodd" class="s1" d="m199.3 26.9c0 0.3-0.1 0.6-0.3 0.9c-0.1 0-0.2 0.1-0.3 0.1q0 0.1-0.1 0.1c0 0.1-0.1 0.1-0.2 0.1c-0.1 0-0.3 0-0.4 0c-0.3 0-0.7-0.1-0.9-0.3q-0.3-0.4-0.4-1c0-0.3 0.2-0.6 0.4-0.8q0.4-0.4 0.9-0.4c0.7 0 1.3 0.6 1.3 1.3zm-0.3 0.1c0-0.6-0.4-1-1-1c-0.1 0-0.3 0-0.4 0.1c-0.1 0-0.1 0.1-0.2 0.1c-0.2 0.2-0.3 0.4-0.3 0.7c-0.1 0.5 0.4 0.9 0.9 0.9c0.3 0 0.5 0 0.7-0.2c0.2-0.2 0.3-0.4 0.3-0.6z" /><path class="s1" d="m201.5 33.6h-0.4l-2.7-5.5l0.3-0.2v0.1z" /><path fill-rule="evenodd" class="s1" d="m161.8 5.8c-0.2 0.3-0.4 0.5-0.7 0.6c-0.3 0.1-0.7 0.1-1 0c-0.3-0.2-0.5-0.4-0.6-0.7c-0.3-0.7 0.1-1.4 0.7-1.7c0.3-0.1 0.7-0.1 1 0.1c0.1 0 0.1 0.1 0.2 0.1c0 0 0.1 0 0.1 0.1q0.1 0.1 0.1 0.1q0.2 0.2 0.3 0.4c0 0.3 0 0.7-0.1 1zm-0.3-0.9c-0.1-0.2-0.2-0.4-0.5-0.5c-0.2-0.2-0.4-0.2-0.7-0.1c-0.5 0.2-0.7 0.8-0.6 1.2q0.1 0.3 0.3 0.4q0.1 0.2 0.3 0.2q0.3 0.2 0.7 0.1c0.5-0.3 0.7-0.8 0.5-1.3z" /><path class="s1" d="m163.3 2.5l-1.7 1.9l-0.2-0.2l1.7-2q0.2 0.2 0.2 0.3z" /><path class="s1" d="m37.5 23.5q-0.1 0.1-0.1 0c-0.1 0-0.1-0.2-0.1-0.3l7.9-15.3c0-0.1 0.2-0.1 0.3-0.1c0.1 0.1 0.1 0.2 0.1 0.3l-7.9 15.3q-0.1 0.1-0.2 0.1z" /><path class="s1" d="m92 28.3c0 0-0.1-0.1-0.2-0.1l-10.6-13.5c-0.1 0-0.1-0.2 0-0.3c0.1 0 0.2 0 0.3 0.1l10.7 13.4c0.1 0.1 0 0.2-0.1 0.3c0 0 0 0.1-0.1 0.1z" /><path class="s1" d="m177 27.1q-0.1 0-0.1 0c-0.1-0.1-0.1-0.2-0.1-0.3l7.9-15.3c0.1-0.1 0.2-0.1 0.3-0.1c0.1 0 0.2 0.2 0.1 0.3l-7.9 15.3q-0.1 0.1-0.2 0.1z" /><path class="s1" d="m159.6 30.1c0 0-0.1 0-0.1-0.1l-6.3-7.4c-0.1 0-0.1-0.2 0-0.3c0.1-0.1 0.2-0.1 0.3 0.1l6.3 7.4c0.1 0 0.1 0.2 0 0.3c-0.1 0-0.1 0-0.2 0z" /><path class="s1" d="m230.8 28.8q-0.2-0.1-0.2-0.1l-5.8-7.8c-0.1-0.1 0-0.3 0.1-0.3c0-0.1 0.2-0.1 0.3 0l5.7 7.8c0.1 0.1 0.1 0.2 0 0.3q-0.1 0.1-0.1 0.1z" /><path class="s2" d="m34.1 64.9v-14.3q0-1-0.6-1.7q-0.6-0.6-1.6-0.6h-3.6c-0.4 0-0.6-0.2-0.7-0.3c-0.2-0.1-0.3-0.3-0.3-0.7q0-0.5 0.3-0.8c0.1-0.1 0.3-0.3 0.7-0.3h14.1c0.4 0 0.6 0.2 0.7 0.3c0.1 0.1 0.3 0.3 0.3 0.7q0 0.6-0.3 0.8c-0.1 0.1-0.3 0.3-0.7 0.3h-3.6q-1 0-1.7 0.6q-0.6 0.6-0.6 1.7v14.3q0 0.5-0.3 0.8c-0.2 0.2-0.5 0.3-0.9 0.3c-0.4 0-0.6-0.1-0.8-0.3c-0.3-0.2-0.3-0.5-0.4-0.8z" /><path class="s2" d="m48.9 46.2q-0.5-0.1-0.8 0.3q-0.3 0.3-0.3 0.8v-0.2q0-0.5 0.2-0.7q0.3-0.2 0.7-0.2z" /><path class="s2" d="m47.8 65.2v-0.1q0 0 0 0.1z" /><path class="s2" d="m47.8 64.9c0 0.1 0 0.1 0 0.1v-0.1c0 0 0 0 0 0z" /><path class="s2" d="m48.8 66h-0.1q-0.5 0-0.7-0.2q-0.2-0.2-0.2-0.6c0 0.3 0.2 0.4 0.2 0.5c0.2 0.1 0.3 0.3 0.8 0.3z" /><path class="s2" d="m60.2 64.9c0-0.4-0.2-0.6-0.3-0.7c-0.1-0.1-0.3-0.3-0.7-0.3h0.1q0.4 0 0.6 0.3c0.2 0.2 0.3 0.3 0.3 0.7z" /><path class="s2" d="m60.2 64.9v0.2q0 0.4-0.3 0.7q-0.2 0.2-0.6 0.2h-0.1c0.4 0 0.6-0.2 0.7-0.2q0.3-0.4 0.3-0.9z" /><path class="s2" d="m79.3 47.4c0 0.2 0 0.5-0.3 0.9c-0.2 0.3-0.5 0.5-0.9 0.5c-0.2 0-0.5 0-0.9-0.2q-0.6-0.3-1.3-0.5q-0.7-0.1-1.6-0.1c-1.7 0-3.1 0.4-4.3 1.2q-1.8 1.2-2.6 3q-0.9 1.8-0.9 3.8q0 2.1 0.9 3.9c0.6 1.2 1.5 2.2 2.6 3q1.7 1.2 4.3 1.2q1 0 1.7-0.1q0.7-0.2 1.3-0.5c0.4-0.1 0.7-0.1 0.8-0.1c0.4 0 0.7 0.1 1 0.5c0.2 0.3 0.3 0.6 0.2 0.9c0 0.3-0.2 0.4-0.5 0.6c-0.6 0.4-1.3 0.6-1.9 0.8q-1.2 0.3-2.6 0.3c-1.7 0-3.2-0.3-4.5-1q-1.9-0.9-3.2-2.3q-1.2-1.4-1.9-3.3c-0.4-1.2-0.6-2.5-0.6-3.8c0-1.3 0.2-2.6 0.6-3.8c0.4-1.2 1-2.4 1.9-3.3q1.3-1.5 3.2-2.4c1.3-0.6 2.8-0.9 4.5-0.9c0.8 0 1.6 0.1 2.3 0.3c0.7 0.2 1.5 0.5 2.2 0.8q0.3 0.2 0.5 0.6z" /><path class="s2" d="m99.2 64.8v-5.4q0-1-0.7-1.7q-0.6-0.6-1.6-0.6h-8.5h-0.6v0.6v7.2q0 0.5-0.3 0.8q-0.3 0.3-0.8 0.3h-0.1q-0.5 0-0.8-0.3q-0.3-0.3-0.3-0.8v-9.6v-0.1v-7.9q0-0.5 0.3-0.8q0.3-0.3 0.8-0.3c0.4 0 0.7 0.1 0.9 0.3q0.3 0.3 0.3 0.8v5.4q0 1 0.6 1.7q0.7 0.6 1.8 0.6h6.7q1 0 1.6-0.6q0.7-0.7 0.7-1.7v-5.4q0-0.5 0.3-0.8c0.2-0.2 0.5-0.3 0.9-0.3c0.4 0 0.6 0.1 0.8 0.3q0.3 0.3 0.3 0.8v17.6q0 0.5-0.3 0.8c-0.1 0.2-0.4 0.3-0.8 0.3c-0.4 0-0.6-0.1-0.9-0.3c-0.2-0.2-0.3-0.5-0.3-0.9z" /><path class="s2" d="m123.2 66q-0.2 0-0.1-0.1l-12.2-13l-1.1-1.2v1.6v11.6q0 0.5-0.3 0.8q-0.3 0.3-0.8 0.3c-0.4 0-0.7-0.1-0.9-0.3q-0.3-0.3-0.3-0.8v-17.1v-1.6q0.3 0 0.5 0.3l10.8 11.5q0.6 0.7 1.2 0.7c0.4 0 1.1-0.2 1.1-1.6v-9.8q0-0.5 0.3-0.8q0.3-0.3 0.8-0.3c0.4 0 0.7 0.1 0.9 0.3q0.3 0.3 0.3 0.8v18.5c0 0.1 0 0.2 0 0.2c0 0-0.1 0-0.2 0z" /><path fill-rule="evenodd" class="s2" d="m148.4 51.5q0.8 2 0.9 4.6q-0.1 2.6-0.9 4.6q-0.9 1.9-2.3 3.2c-0.9 0.9-2 1.5-3.3 1.9q-1.8 0.7-3.7 0.7c-1.3 0-2.6-0.2-3.9-0.7q-1.8-0.6-3.2-1.9q-1.5-1.3-2.3-3.2c-0.6-1.3-0.9-2.9-0.9-4.6q0-2.6 0.9-4.6q0.8-1.9 2.3-3.2c0.9-0.9 2-1.5 3.2-2q1.9-0.6 3.9-0.6c1.2 0 2.5 0.2 3.7 0.6q1.9 0.7 3.3 2q1.4 1.3 2.3 3.2zm-1.4 4.6q0.1-2-0.6-3.5q-0.8-1.5-1.9-2.5c-0.8-0.7-1.6-1.2-2.6-1.6c-0.9-0.3-1.9-0.4-2.9-0.4q-1.5 0-2.9 0.4q-1.4 0.5-2.5 1.6c-0.8 0.6-1.4 1.5-1.9 2.5q-0.7 1.5-0.7 3.5q0 2 0.7 3.5q0.7 1.5 1.9 2.5c0.7 0.7 1.6 1.2 2.5 1.5c0.9 0.3 1.9 0.5 2.9 0.5q1.5 0 2.9-0.5q1.5-0.4 2.6-1.5q1.1-1 1.9-2.5q0.7-1.5 0.6-3.5z" /><path class="s2" d="m137.7 57.5c-0.4-0.5-0.6-0.9-0.6-1.4q0-0.8 0.6-1.4c0.4-0.4 0.9-0.6 1.4-0.6c0.5 0 1 0.2 1.3 0.6c0.4 0.4 0.7 0.9 0.7 1.4q-0.1 0.8-0.6 1.3c-0.5 0.5-0.9 0.7-1.4 0.7c-0.6 0-1-0.2-1.4-0.6z" /><path class="s2" d="m154.7 65c0-0.1 0-0.1 0-0.1v-17.6q0-0.5 0.3-0.8q0.3-0.3 0.8-0.3c0.4 0 0.7 0.1 0.9 0.3q0.3 0.3 0.3 0.8v16v0.7h0.6h8.4c0.5 0 0.7 0.1 0.8 0.2c0.1 0.1 0.2 0.3 0.2 0.8q0 0.5-0.2 0.8c-0.1 0-0.3 0.2-0.8 0.2h-10.3c-0.5 0-0.6-0.1-0.8-0.2c-0.1-0.2-0.2-0.3-0.2-0.8z" /><path class="s2" d="m50.1 48.2v6.8h9.2q0.4 0 0.6 0.3q0.3 0.3 0.3 0.7v0.2q0 0.5-0.3 0.7c-0.1 0.1-0.4 0.2-0.6 0.2h-9.2v6.8h9.1c0.4 0 0.6 0.2 0.7 0.3c0.2 0.1 0.3 0.3 0.3 0.7q0 0.6-0.3 0.8c-0.1 0.1-0.3 0.3-0.7 0.3h-10.4c-0.4 0-0.6-0.2-0.7-0.3c-0.1-0.1-0.2-0.2-0.3-0.5v-0.1q0-0.1 0-0.1c0-0.1 0-0.1 0-0.1q0 0 0-0.1v-17.5q0-0.5 0.3-0.8q0.3-0.3 0.9-0.3h10.3q0.4 0 0.6 0.3c0.2 0.1 0.3 0.3 0.3 0.6v0.3q0 0.4-0.3 0.6q-0.2 0.3-0.6 0.3h-9.2z" /><path fill-rule="evenodd" class="s2" d="m206.8 50.8c0.1 0.9-0.1 1.6-0.3 2.4c-0.5 1.1-0.3 2.2 0.5 3.1c0.6 0.5 0.9 1.1 1.2 1.8q0.4 1 0.4 2.1c0 0.7-0.2 1.4-0.4 2.1c-0.2 0.7-0.6 1.3-1.1 1.9q-0.8 0.7-1.9 1.3c-0.7 0.3-1.6 0.5-2.6 0.5h-6.5q-0.8 0-1.4-0.5c-0.3-0.4-0.5-0.8-0.5-1.4v-16q0-0.9 0.5-1.4c0.4-0.4 0.8-0.5 1.4-0.5h4.8c1.2 0 2.3 0.2 3.2 0.6c0.8 0.5 1.5 1 1.9 1.7q0.7 1.1 0.8 2.3zm-0.6 9.4c0-0.6-0.2-1.2-0.4-1.8q-0.4-0.8-1.2-1.4q-0.8-0.5-2-0.5h-3.4q-0.6 0-0.8-0.3c-0.2-0.2-0.3-0.4-0.3-0.7c0-0.5 0.1-0.6 0.3-0.8c0.1-0.1 0.4-0.2 0.8-0.3c0.6 0 2.8 0.1 3.9-0.5c0.5-0.3 0.8-0.7 1-1.2c0.3-0.4 0.4-1 0.3-1.5c0-0.5-0.2-1-0.4-1.4q-0.5-0.7-1.2-1.1c-0.6-0.3-1.2-0.5-1.9-0.5h-2q-1.1 0-1.7 0.7q-0.8 0.7-0.7 1.7v10.9c0 0.7 0.2 1.3 0.7 1.7c0.4 0.5 1 0.7 1.7 0.7h3.7c0.8 0 1.5-0.1 2-0.5q0.8-0.6 1.1-1.4q0.4-0.8 0.5-1.8z" /><path fill-rule="evenodd" class="s2" d="m188.6 65.4q0 0 0 0.1c0 0-0.1 0-0.1 0.1c0 0 0 0 0 0.1c-0.1 0-0.1 0-0.1 0.1q-0.2 0.2-0.5 0.2c-0.1 0-0.2 0.1-0.2 0.1q-0.2 0-0.4 0q-0.1 0-0.2 0c-0.1 0-0.2-0.1-0.3-0.1q-0.2-0.1-0.2-0.3l-1.2-2.5h-10.9l-1.2 2.5q0 0.2-0.2 0.3c-0.1 0.1-0.2 0.1-0.3 0.1c-0.1 0-0.2 0-0.2 0c-0.3 0-0.4 0-0.6 0c-0.3-0.1-0.5-0.2-0.6-0.4q0-0.1-0.1-0.3q0-0.1 0-0.2c0-0.1 0.1-0.2 0.1-0.2q0-0.3 0.2-0.5l3-6.5l4.4-9.6v-0.1q0-0.2 0.1-0.3c0.1 0 0.1-0.1 0.1-0.1c0-0.1 0-0.1 0.1-0.1c0.1-0.2 0.1-0.3 0.2-0.3c0-0.1 0-0.1 0.1-0.1q0-0.1 0-0.1q0 0 0 0l0.1-0.1c0 0 0 0 0.1 0q0-0.1 0.1-0.1q0.1 0 0.1 0c0.1 0 0.1 0 0.1 0c0.1 0.1 0.1 0.1 0.2 0.1q0 0 0.1 0.1c0.1 0.1 0.2 0.2 0.4 0.4c0 0.1 0 0.1 0.1 0.2c0 0.1 0 0.2 0.1 0.2c0 0.1 0 0.1 0.1 0.2l3.6 7.9l3.7 8.2c0.2 0.2 0.2 0.5 0.3 0.7c0 0.1 0 0.1-0.1 0.3zm-13-4.4v-0.1zm0 0h9l-3.1-6.7q-0.5-1-1.2-1.1c-0.1 0-0.2 0-0.2 0q-0.2 0-0.4 0.1q-0.6 0.2-1 1.1z" /></g></svg>