<svg version="1.2" xmlns="http://www.w3.org/2000/svg" viewBox="0 0 245 70" width="245" height="70"><defs><clipPath clipPathUnits="userSpaceOnUse" id="cp1"><path d="m-240-39h1920v8118h-1920z" /></clipPath></defs><style>.s0{fill:#ffffff}.s1{fill:#1e0b4b}</style><g clip-path="url(#cp1)"><path fill-rule="evenodd" class="s0" d="m63.7 35.5h-3.1c-1.5 0-2.8-0.8-3.5-2l-2.2-4.2h-14l-2.2 4.2c-0.7 1.2-2 2-3.4 2h-3.2c-1.5 0-2.4-1.6-1.7-2.9l15.8-29.6c0.8-1.3 2.7-1.3 3.5 0l15.8 29.6c0.7 1.3-0.3 2.9-1.8 2.9zm-11.7-11.8l-2.3-4.3c-0.8-1.3-2.7-1.3-3.5 0l-2.3 4.3z" /><path fill-rule="evenodd" class="s0" d="m210.6 35.5h-3.2c-1.5 0-2.8-0.8-3.5-2l-2.2-4.2h-14l-2.2 4.2c-0.6 1.2-1.9 2-3.4 2h-3.2c-1.5 0-2.4-1.6-1.7-2.9l15.9-29.6c0.7-1.3 2.7-1.3 3.4 0l15.8 29.6c0.7 1.3-0.3 2.9-1.7 2.9zm-11.9-11.8l-2.3-4.3c-0.7-1.3-2.7-1.3-3.4 0l-2.3 4.3z" /><path class="s0" d="m24.8 25.1c0 3.3-1 5.8-3.1 7.7c-2.1 1.9-4.5 2.8-7.6 2.8c-3.3 0-6.5-0.6-9.6-1.6c-3.5-1.2-3.9-2.9-3.9-4.2q0-0.1 0-0.2c0-0.2 0-0.2 0-0.4c0.1-1.3 0.4-2.4 0.9-3.1c5 2.1 8.6 3.2 11.1 3.2q0.3 0 0.6 0c3.2-0.3 4.9-1.3 4.9-3.2c0-1.2-0.4-2.7-2.7-3.8c-1.3-0.6-3.2-1.3-5.6-2.1c-2.9-1-3.7-1.5-3.8-1.7l-0.1-0.1l-0.1-0.1c-2.3-1.5-3.4-3.7-3.3-6.7c0.1-3.2 1.1-5.7 3.1-7.6c2-1.9 4.5-2.8 7.6-2.9c0.1 0 0.3 0 0.4 0c2.9 0 6.7 1 11.3 3.1c-0.2 0.7-0.4 1.5-0.7 2.2c0 0.1-0.1 0.3-0.1 0.4c-0.5 1.3-1.2 2.3-2.2 2.3c-0.2 0-0.4 0-0.5-0.1c-3.9-1.3-6.6-2-8.5-2c-1.4 0-2.3 0.3-2.9 1c-0.4 0.4-0.8 1.1-0.7 2.1c0 1.1 0.5 2.5 2.6 3.6c1.3 0.8 3.2 1.5 5.6 2.4c2.8 1 3.7 1.4 4 1.6c2.2 1.8 3.3 4.2 3.3 7.4z" /><path class="s0" d="m101.9 2.1v30.1c0 1.7-0.5 3.3-3.9 3.3c-1.6 0-2.8-0.5-3.6-1.6l-11.9-14l-2.4-2.9v15.2c0 1.7-0.5 3.3-3.9 3.3h-3.9v-33.3h3.9h0.1c1.8 0 2.9 0.5 3.7 1.5v0.1l11.6 13.9l2.4 2.8v-15.1c0-1.7 0.5-3.3 3.9-3.3z" /><path class="s0" d="m134.5 25.1c0 3.3-0.9 5.8-3.1 7.7c-2 1.9-4.5 2.8-7.6 2.8c-3.2 0-6.4-0.6-9.5-1.6c-3.5-1.2-3.9-2.9-3.9-4.2q0-0.2 0-0.4c0-0.1 0-0.2 0-0.4q0.1-1.9 0.8-2.9c5 2.1 8.7 3.2 11.2 3.2q0.3 0 0.6 0c3.2-0.3 4.9-1.3 4.9-3.2c0-1.2-0.5-2.7-2.8-3.8c-1.3-0.6-3.2-1.3-5.5-2.1c-3-1-3.7-1.5-3.9-1.7l-0.1-0.1v-0.1c-2.3-1.5-3.4-3.8-3.4-6.8c0.1-3.2 1.1-5.7 3.1-7.6c2-1.9 4.5-2.8 7.6-2.9c0.1 0 0.3 0 0.3 0c3 0 6.8 1 11.3 3.1c-0.1 0.8-0.4 1.7-0.7 2.6c-0.1 0.1-0.1 0.2-0.2 0.3c-0.4 1.1-1.1 2-2 2c-0.2 0-0.3 0-0.6-0.1c-3.8-1.3-6.5-2-8.4-2c-1.4 0-2.3 0.3-3 1c-0.3 0.4-0.7 1.1-0.6 2.1c0 1.1 0.5 2.5 2.6 3.6c1.3 0.8 3.2 1.5 5.6 2.4c2.8 1 3.7 1.4 4 1.7c2.3 1.8 3.3 4.2 3.3 7.4z" /><path class="s0" d="m170.9 32.2c-0.1 0.9-0.6 1.7-1.5 2.6q-1.2 1-2.4 1c-0.2 0-0.4 0-0.5-0.1c-1.1-0.1-2.1-0.7-3-1.9v-0.1h-0.1l-10.1-11.4l-2.4-2.6v12.5c0 1.7-0.4 3.2-3.7 3.3c-0.1 0-0.1 0-0.2 0h-3.9v-33.3h7.9v15.5l2.3-2.6l10.2-11.3v-0.1c1-1.2 2-1.8 3-1.9c0.2 0 0.4-0.1 0.5-0.1c0.9 0 1.6 0.3 2.4 1.1c0.1 0 0.2 0.1 0.2 0.2c0.1 0.1 0.1 0.1 0.2 0.2c0.6 0.7 1 1.4 1 2.1c0.1 0.9-0.4 1.9-1.3 2.9l-8.4 9.6l-0.9 0.9l0.8 0.9l8.5 9.6q1.4 1.7 1.4 3z" /><path fill-rule="evenodd" class="s0" d="m244.8 32.2c0 0.8-0.5 1.6-1.4 2.4c-0.9 0.7-1.8 1.1-2.8 1.1h-0.2c-0.9 0-1.9-0.7-3.1-2l-8.3-11.4l-2.4-3.3v13.1c0 1.8-0.5 3.3-3.8 3.3h-4.1v-33.3h15.9c2.6 0 4.6 1 6.3 3c1.8 2 2.7 4.1 2.7 6.4c0 4.1-1.6 7-4.8 8.8l-1.3 0.8l0.9 1.2l4.8 6.6h0.1c1 1.3 1.6 2.4 1.5 3.3zm-8-20c0-3.5-2.2-5.5-5.8-5.5h-4.5v10.9h4.5c3.6 0 5.8-2 5.8-5.4z" /><path fill-rule="evenodd" class="s1" d="m77.2 30c-0.1 0.3-0.4 0.6-0.8 0.7q-0.1 0-0.2 0q-0.1 0-0.2 0c0 0-0.1 0-0.1 0q-0.2 0-0.4-0.1c-0.4-0.2-0.6-0.4-0.7-0.8c-0.1-0.3-0.1-0.7 0.1-1c0.1-0.3 0.4-0.5 0.7-0.6c0.3-0.1 0.7-0.1 1 0.1c0.7 0.3 0.9 1.1 0.6 1.7zm-0.7-1.4q-0.2-0.1-0.5-0.1c-0.1 0-0.2 0-0.3 0c-0.2 0.1-0.4 0.3-0.6 0.5c-0.2 0.5-0.1 1.1 0.4 1.3c0.3 0.1 0.5 0.2 0.8 0.1c0.3-0.1 0.5-0.3 0.6-0.5c0.2-0.5 0-1.1-0.4-1.3z" /><path class="s1" d="m76.2 35.5h-0.4v-4.8h0.3z" /><path fill-rule="evenodd" class="s1" d="m148.2 28c-0.2 0.4-0.4 0.6-0.8 0.7q-0.1 0.1-0.3 0.1q0 0-0.1 0c0 0-0.1 0-0.2 0q-0.2 0-0.4-0.2c-0.2-0.1-0.5-0.4-0.6-0.7c-0.1-0.3-0.1-0.7 0.1-1c0.1-0.3 0.4-0.6 0.8-0.7c0.3 0 0.6 0 0.9 0.1c0.7 0.4 0.9 1.2 0.6 1.7zm-0.7-1.3c-0.1-0.1-0.3-0.2-0.4-0.2c-0.1 0-0.3 0-0.4 0.1c-0.2 0.1-0.4 0.2-0.5 0.5c-0.3 0.5-0.1 1 0.4 1.3c0.2 0.1 0.5 0.1 0.7 0.1c0.3-0.1 0.5-0.3 0.6-0.5c0.3-0.5 0.1-1.1-0.4-1.3z" /><path class="s1" d="m147.2 35.5c-0.1 0-0.1 0-0.2 0h-0.1l-0.1-6.7h0.3z" /><path fill-rule="evenodd" class="s1" d="m223.8 28c-0.2 0.4-0.5 0.6-0.8 0.7q-0.1 0.1-0.3 0.1q-0.1 0-0.1 0c-0.1 0-0.2 0-0.2 0q-0.2 0-0.4-0.2c-0.3-0.1-0.6-0.4-0.7-0.7c-0.1-0.3-0.1-0.7 0.1-1c0.1-0.3 0.4-0.6 0.8-0.7c0.3 0 0.7 0 1 0.1c0.6 0.4 0.9 1.2 0.6 1.7zm-0.8-1.3q-0.2-0.2-0.4-0.2c-0.2 0-0.2 0-0.3 0.1q-0.4 0.1-0.6 0.5c-0.3 0.5-0.1 1 0.4 1.3c0.2 0.1 0.5 0.1 0.8 0.1c0.2-0.1 0.4-0.3 0.5-0.5c0.3-0.5 0.1-1.1-0.4-1.3z" /><path class="s1" d="m222.7 35.5h-0.3v-6.7h0.3z" /><path fill-rule="evenodd" class="s1" d="m118.3 31.3q0 0.6-0.4 1c-0.5 0.5-1.3 0.5-1.9 0q-0.4-0.4-0.4-1c0-0.1 0.1-0.1 0.1-0.2q0-0.1 0-0.2c0.1 0 0.1-0.1 0.1-0.2q0.2-0.2 0.3-0.3q0.4-0.4 0.9-0.4c0.4-0.1 0.7 0.1 1 0.3c0.3 0.3 0.4 0.6 0.3 1zm-0.3 0.3c0-0.1 0-0.2 0-0.3c0-0.3-0.1-0.6-0.3-0.7c-0.3-0.4-1-0.4-1.4 0q-0.3 0.3-0.3 0.7c0 0.2 0.2 0.5 0.4 0.7c0.3 0.4 1 0.4 1.4 0c0.1-0.2 0.2-0.3 0.2-0.4z" /><path class="s1" d="m115.9 30.7l-0.1 0.3l-5.4-1.6c0-0.1 0-0.2 0-0.4z" /><path fill-rule="evenodd" class="s1" d="m7.4 31.1q0 0.5-0.4 1c-0.5 0.5-1.4 0.5-1.9 0q-0.4-0.5-0.4-1c0-0.1 0.1-0.2 0.1-0.3q0 0 0-0.1c0 0 0-0.1 0.1-0.2q0.1-0.2 0.2-0.3q0.5-0.4 1-0.4q0.5 0 0.9 0.4c0.3 0.2 0.4 0.5 0.4 0.9zm-0.4 0.3c0.1-0.1 0.1-0.2 0.1-0.3c0-0.3-0.2-0.5-0.3-0.7c-0.4-0.4-1.1-0.4-1.4 0c-0.2 0.2-0.3 0.4-0.3 0.7c0 0.2 0.1 0.5 0.3 0.7c0.4 0.4 1 0.4 1.4 0q0.2-0.2 0.2-0.4z" /><path class="s1" d="m4.9 30.6l-0.1 0.3l-4.2-1.3c0-0.1 0-0.2 0-0.3z" /><path fill-rule="evenodd" class="s1" d="m131.8 6c0.1 0 0 0.1 0 0.2c0 0.1 0 0.1 0 0.2c0 0 0 0.1-0.1 0.1c0 0.2-0.1 0.3-0.2 0.4q-0.4 0.4-0.9 0.4q-0.6 0-1-0.4q-0.4-0.4-0.4-0.9q0-0.5 0.4-0.9c0.5-0.6 1.3-0.6 1.8-0.1c0.3 0.2 0.4 0.5 0.4 1zm-0.3-0.1c0-0.2-0.2-0.5-0.3-0.7c-0.4-0.3-1.1-0.3-1.4 0.1q-0.2 0.2-0.3 0.4c0 0.1 0 0.2 0 0.3c0 0.2 0.1 0.5 0.3 0.7c0.4 0.3 1.1 0.3 1.4-0.1c0.2-0.2 0.3-0.4 0.3-0.7z" /><path class="s1" d="m133.8 6.8c0 0.1-0.1 0.2-0.1 0.3l-2-0.6l0.1-0.3z" /><path fill-rule="evenodd" class="s1" d="m20.9 5.2c0 0.1-0.1 0.2-0.1 0.3q0 0.1 0 0.1c0 0.1 0 0.2-0.1 0.2c-0.1 0.2-0.2 0.2-0.2 0.4q-0.5 0.4-1 0.4q-0.5 0-0.9-0.4q-0.4-0.4-0.4-0.9q0-0.6 0.3-1c0.6-0.5 1.4-0.5 1.9 0c0.3 0.2 0.4 0.6 0.5 0.9zm-0.4 0c0-0.2-0.1-0.5-0.3-0.7c-0.4-0.3-1.1-0.3-1.4 0.1q-0.2 0.2-0.2 0.4c-0.1 0.1-0.1 0.2-0.1 0.3c0 0.2 0.2 0.5 0.3 0.7c0.4 0.3 1.1 0.3 1.4-0.1q0.3-0.3 0.3-0.7z" /><path class="s1" d="m24.2 6.4c-0.1 0.1-0.1 0.3-0.1 0.4l-3.4-1l0.1-0.3z" /><path fill-rule="evenodd" class="s1" d="m99.2 9.2c-0.1 0.3-0.4 0.6-0.8 0.7c-0.3 0.1-0.6 0.1-0.9-0.1c-0.7-0.4-1-1.2-0.6-1.8c0.1-0.3 0.4-0.6 0.7-0.7c0.1 0 0.2 0 0.3 0q0.1 0 0.1 0c0.1 0 0.2 0 0.2 0q0.3 0 0.5 0.1c0.2 0.2 0.5 0.5 0.6 0.8c0.1 0.3 0 0.7-0.1 1zm-0.7-1.5c-0.2-0.1-0.5-0.2-0.8-0.1c-0.2 0.1-0.4 0.3-0.6 0.5c-0.2 0.5 0 1.1 0.4 1.4q0.2 0.1 0.5 0.1c0.1 0 0.2 0 0.3 0c0.3-0.1 0.5-0.3 0.6-0.5c0.3-0.5 0.1-1.2-0.4-1.4z" /><path class="s1" d="m98.2 7.3h-0.3v-5.2h0.3z" /><path fill-rule="evenodd" class="s1" d="m60.1 27.2c0 0.4-0.1 0.8-0.4 1c0 0-0.1 0.1-0.2 0.1q0 0.1-0.1 0.1c-0.1 0.1-0.2 0.1-0.2 0.1c-0.1 0-0.3 0-0.4 0c-0.4 0-0.8-0.1-1-0.4q-0.3-0.4-0.4-0.9c0-0.4 0.2-0.7 0.5-1q0.4-0.3 0.9-0.3c0.7 0 1.3 0.6 1.3 1.3zm-0.3 0c0-0.5-0.5-1-1-1c-0.1 0-0.3 0-0.5 0.1q-0.1 0.1-0.2 0.2c-0.2 0.2-0.3 0.4-0.3 0.6c0 0.6 0.4 1.1 1 1.1c0.2 0 0.5-0.1 0.7-0.3c0.2-0.2 0.3-0.4 0.3-0.7z" /><path class="s1" d="m63.1 35.5h-0.4l-3.5-7l0.3-0.2z" /><path fill-rule="evenodd" class="s1" d="m207.2 28.5c0 0.4-0.1 0.7-0.4 0.9c-0.1 0.1-0.2 0.2-0.2 0.2q-0.1 0.1-0.2 0.1c0 0.1-0.1 0.1-0.2 0.1c-0.1 0-0.3 0-0.4 0c-0.4 0-0.7-0.1-1-0.4q-0.3-0.4-0.3-0.9c0-0.3 0.1-0.7 0.4-0.9q0.4-0.3 0.9-0.4c0.8 0 1.3 0.7 1.4 1.3zm-0.4 0.1c0-0.6-0.4-1-1-1c-0.1 0-0.3 0-0.4 0.1c-0.1 0-0.1 0.1-0.2 0.2c-0.2 0.1-0.4 0.4-0.4 0.6c0 0.6 0.5 1 1 1c0.3 0 0.5-0.1 0.7-0.2c0.2-0.2 0.3-0.5 0.3-0.7z" /><path class="s1" d="m209.4 35.5h-0.4l-2.8-5.7l0.3-0.2v0.1z" /><path fill-rule="evenodd" class="s1" d="m168.2 6.6c-0.1 0.3-0.4 0.6-0.7 0.7c-0.3 0.1-0.7 0.1-1 0c-0.3-0.2-0.5-0.4-0.7-0.8c-0.2-0.6 0.1-1.4 0.8-1.7c0.3-0.1 0.7-0.1 1 0.1c0.1 0 0.1 0.1 0.2 0.1c0.1 0.1 0.1 0.1 0.1 0.1q0.1 0.1 0.2 0.1q0.1 0.2 0.2 0.4c0.1 0.4 0.1 0.7-0.1 1zm-0.3-0.9c0-0.2-0.2-0.4-0.5-0.5c-0.2-0.1-0.4-0.1-0.7-0.1c-0.5 0.2-0.8 0.8-0.6 1.3q0.1 0.3 0.3 0.4q0.1 0.1 0.2 0.2c0.3 0.1 0.5 0.1 0.8 0c0.5-0.2 0.8-0.7 0.5-1.3z" /><path class="s1" d="m169.8 3.3l-1.8 1.9l-0.2-0.2l1.8-2q0.2 0.1 0.2 0.3z" /><path class="s1" d="m39.3 25.1c-0.1 0-0.1 0-0.1-0.1c-0.1 0-0.2-0.1-0.1-0.3l8.2-15.8c0-0.1 0.2-0.2 0.3-0.1c0.1 0 0.1 0.2 0.1 0.3l-8.2 15.8q-0.1 0.2-0.2 0.2z" /><path class="s1" d="m95.8 30c0 0-0.1-0.1-0.1-0.1l-11.1-14c-0.1 0-0.1-0.2 0-0.3c0.1-0.1 0.3 0 0.3 0.1l11.1 13.9c0.1 0.1 0.1 0.2 0 0.3c0 0-0.1 0.1-0.2 0.1z" /><path class="s1" d="m184 28.8c0 0-0.1 0-0.1-0.1c-0.1 0-0.1-0.2-0.1-0.3l8.2-15.8c0.1-0.1 0.2-0.2 0.3-0.1c0.1 0 0.2 0.2 0.1 0.3l-8.2 15.8q0 0.2-0.2 0.2z" /><path class="s1" d="m166 31.9c0 0-0.1-0.1-0.2-0.1l-6.5-7.7c-0.1-0.1-0.1-0.2 0-0.3c0.1-0.1 0.3-0.1 0.4 0.1l6.5 7.6c0.1 0.1 0.1 0.2-0.1 0.3c0 0 0 0.1-0.1 0.1z" /><path class="s1" d="m239.8 30.5c-0.1 0-0.2-0.1-0.2-0.1l-6-8.1c-0.1-0.1 0-0.2 0.1-0.3c0-0.1 0.2-0.1 0.3 0l6 8.1c0 0.1 0 0.2-0.1 0.3q-0.1 0.1-0.1 0.1z" /><path class="s0" d="m7.1 68v-14.9c0-0.7-0.3-1.2-0.7-1.7q-0.6-0.7-1.7-0.7h-3.7c-0.4 0-0.6-0.1-0.7-0.2c-0.2-0.1-0.3-0.4-0.3-0.8q0-0.5 0.3-0.8c0.1-0.1 0.3-0.3 0.7-0.3h14.6c0.5 0 0.6 0.2 0.8 0.3c0.1 0.1 0.3 0.3 0.3 0.8q0 0.5-0.3 0.8c-0.2 0.1-0.3 0.2-0.8 0.2h-3.7q-1 0-1.7 0.7q-0.7 0.6-0.7 1.7v14.9q0 0.5-0.3 0.8c-0.2 0.3-0.5 0.3-0.9 0.3c-0.4 0-0.6 0-0.9-0.3c-0.2-0.2-0.3-0.5-0.3-0.8z" /><path class="s0" d="m22.4 48.5c-0.3 0-0.6 0.1-0.8 0.3q-0.4 0.4-0.4 0.9v-0.2q0-0.5 0.3-0.7q0.3-0.3 0.7-0.3z" /><path class="s0" d="m21.2 68.2q0 0 0 0z" /><path class="s0" d="m21.2 68c0 0.1 0 0.1 0 0.1v-0.2c0 0.1 0 0.1 0 0.1z" /><path class="s0" d="m22.3 69.1h-0.1q-0.5 0-0.7-0.2q-0.2-0.2-0.3-0.7c0.1 0.4 0.2 0.5 0.3 0.6c0.1 0.2 0.3 0.3 0.8 0.3z" /><path class="s0" d="m34.1 67.9v0.1c0-0.4-0.2-0.7-0.3-0.7c-0.1-0.2-0.3-0.3-0.7-0.3h0.1q0.4 0 0.6 0.3c0.2 0.1 0.3 0.3 0.3 0.6z" /><path class="s0" d="m34.1 68v0.2q0 0.4-0.3 0.7q-0.2 0.2-0.6 0.2h-0.1c0.4 0 0.7-0.1 0.7-0.2q0.3-0.4 0.3-0.9z" /><path class="s0" d="m53.9 49.8c0.1 0.2 0.1 0.5-0.3 0.9c-0.2 0.4-0.5 0.6-0.9 0.6c-0.2 0-0.5-0.1-0.9-0.3q-0.6-0.2-1.4-0.4q-0.7-0.2-1.6-0.2c-1.8 0-3.3 0.4-4.5 1.3q-1.8 1.2-2.7 3.1c-0.6 1.2-0.9 2.5-0.9 4c0 1.4 0.3 2.8 0.9 4c0.6 1.2 1.5 2.3 2.7 3.1c1.2 0.9 2.7 1.3 4.5 1.3q0.9 0 1.7-0.2q0.7-0.2 1.3-0.4c0.5-0.2 0.8-0.2 0.9-0.2c0.4 0 0.7 0.1 1 0.5c0.2 0.4 0.3 0.6 0.3 0.9c-0.1 0.4-0.3 0.5-0.5 0.7c-0.7 0.4-1.4 0.6-2.1 0.8q-1.2 0.3-2.7 0.3c-1.7 0-3.3-0.3-4.6-1q-2-0.9-3.3-2.4c-0.9-1-1.6-2.1-2-3.4c-0.5-1.3-0.7-2.6-0.7-4c0-1.3 0.2-2.6 0.7-3.9c0.4-1.3 1.1-2.5 2-3.4q1.3-1.5 3.3-2.5c1.3-0.6 2.9-0.9 4.6-0.9c0.9 0 1.7 0.1 2.4 0.3c0.8 0.2 1.6 0.5 2.3 0.8q0.4 0.2 0.5 0.6z" /><path class="s0" d="m74.6 67.9v-5.6q0-1.1-0.7-1.8q-0.7-0.6-1.8-0.6h-8.7h-0.7v0.6v7.4c0 0.4 0 0.7-0.3 0.9c-0.2 0.2-0.5 0.3-0.8 0.3h-0.1c-0.3 0-0.6-0.1-0.8-0.3c-0.3-0.2-0.3-0.5-0.3-0.9v-9.9v-0.1v-8.2c0-0.3 0-0.6 0.3-0.8c0.2-0.2 0.5-0.3 0.8-0.3c0.4 0 0.7 0.1 0.9 0.3c0.3 0.2 0.3 0.5 0.3 0.8v5.6q0 1.1 0.7 1.8q0.7 0.7 1.8 0.7h6.9q1.1 0 1.8-0.7q0.7-0.7 0.7-1.8v-5.6c0-0.3 0.1-0.6 0.3-0.8c0.2-0.2 0.5-0.3 0.9-0.3c0.4 0 0.7 0.1 0.9 0.3c0.2 0.2 0.3 0.5 0.3 0.8v18.3c0 0.3-0.1 0.6-0.3 0.8c-0.2 0.3-0.5 0.3-0.9 0.3c-0.4 0-0.6 0-0.9-0.3c-0.2-0.2-0.3-0.5-0.3-0.9z" /><path class="s0" d="m99.5 69.1c-0.1 0-0.2 0-0.2 0l-12.6-13.6l-1.1-1.3v1.8v12c0 0.3-0.1 0.6-0.4 0.8c-0.2 0.3-0.5 0.3-0.8 0.3c-0.4 0-0.7 0-0.9-0.3c-0.2-0.2-0.3-0.5-0.3-0.8v-17.7v-0.1v-1.6q0.3 0 0.5 0.2l11.2 12.1q0.7 0.6 1.3 0.6c0.3 0 1.1-0.1 1.1-1.6v-10.2c0-0.3 0.1-0.6 0.3-0.8c0.2-0.2 0.5-0.3 0.9-0.3c0.4 0 0.7 0.1 0.9 0.3c0.2 0.2 0.3 0.5 0.3 0.8v19.3c0 0.1-0.1 0.1-0.1 0.1c0 0 0 0-0.1 0z" /><path fill-rule="evenodd" class="s0" d="m125.6 54.1q0.9 2 0.9 4.7c0 1.9-0.3 3.5-0.9 4.8c-0.6 1.3-1.4 2.4-2.4 3.3c-0.9 0.9-2.1 1.6-3.3 2.1q-2 0.6-4 0.6c-1.3 0-2.7-0.2-3.9-0.6q-1.9-0.7-3.4-2.1c-1-0.8-1.8-1.9-2.4-3.3c-0.6-1.3-0.9-3-0.9-4.8q0-2.7 0.9-4.7q0.9-2 2.4-3.4c0.9-0.9 2.1-1.5 3.4-2q1.9-0.7 3.9-0.7c1.3 0 2.7 0.3 4 0.7q1.8 0.7 3.3 2q1.5 1.4 2.4 3.4zm-1.4 4.7q0-2.1-0.7-3.6q-0.7-1.6-1.9-2.6c-0.8-0.7-1.7-1.2-2.7-1.6c-1-0.3-2-0.5-3-0.5c-1 0-2 0.2-3 0.5q-1.5 0.5-2.7 1.6c-0.7 0.7-1.4 1.6-1.9 2.6q-0.7 1.6-0.7 3.6q0 2.1 0.7 3.7q0.8 1.5 1.9 2.6c0.8 0.7 1.7 1.2 2.7 1.6c0.9 0.3 2 0.5 3 0.5c1 0 2-0.2 3-0.5q1.6-0.5 2.7-1.6q1.2-1.1 1.9-2.6q0.7-1.6 0.7-3.7z" /><path class="s0" d="m114.5 60.3c-0.4-0.5-0.6-0.9-0.6-1.5c0-0.5 0.2-1 0.6-1.4c0.4-0.4 0.9-0.6 1.4-0.6c0.6 0 1.1 0.2 1.4 0.6c0.5 0.4 0.7 0.9 0.7 1.4c0 0.6-0.2 1-0.6 1.4c-0.5 0.5-0.9 0.7-1.5 0.7c-0.5 0-1-0.2-1.4-0.6z" /><path class="s0" d="m132.1 68.1c0-0.1 0-0.1 0-0.1v-18.3c0-0.3 0.1-0.6 0.4-0.8c0.2-0.2 0.5-0.3 0.8-0.3c0.4 0 0.7 0.1 0.9 0.3c0.2 0.2 0.3 0.5 0.3 0.8v16.7v0.6h0.7h8.7c0.5 0 0.7 0.2 0.8 0.3c0.1 0.1 0.3 0.3 0.3 0.8q0 0.5-0.3 0.8c-0.1 0.1-0.3 0.2-0.8 0.2h-10.7c-0.5 0-0.7-0.1-0.8-0.2c-0.1-0.2-0.3-0.3-0.3-0.8z" /><path class="s0" d="m23.7 50.7v7.1h9.5q0.4 0 0.6 0.2q0.3 0.3 0.3 0.7v0.3q0 0.4-0.3 0.6c-0.1 0.2-0.4 0.3-0.6 0.3h-9.5v7.1h9.4c0.4 0 0.7 0.1 0.7 0.3c0.2 0.1 0.3 0.3 0.3 0.7q0 0.6-0.3 0.8c-0.1 0.2-0.3 0.3-0.7 0.3h-10.8c-0.4 0-0.7-0.1-0.7-0.3c-0.1-0.1-0.3-0.2-0.3-0.6q0-0.1 0-0.1c0-0.1 0-0.1 0-0.1q0 0 0-0.1v-18.2c0-0.3 0.1-0.6 0.3-0.8c0.2-0.2 0.5-0.3 0.9-0.3h10.7q0.4 0 0.6 0.2c0.2 0.2 0.3 0.4 0.3 0.7v0.3q0 0.5-0.3 0.7q-0.2 0.2-0.6 0.2h-9.5z" /><path fill-rule="evenodd" class="s0" d="m186.2 53.4c0.1 0.8 0 1.7-0.3 2.4c-0.5 1.2-0.3 2.3 0.6 3.2c0.5 0.6 0.9 1.2 1.1 1.9q0.4 1.1 0.4 2.2c0 0.7-0.1 1.5-0.4 2.2c-0.2 0.7-0.6 1.4-1.1 1.9q-0.8 0.8-1.9 1.4c-0.8 0.3-1.7 0.5-2.8 0.5h-6.7q-0.9 0-1.4-0.5c-0.4-0.4-0.6-0.9-0.6-1.5v-16.6q0-0.9 0.6-1.4c0.3-0.4 0.8-0.6 1.4-0.6h5c1.3 0 2.4 0.3 3.3 0.7c0.8 0.5 1.5 1.1 2 1.8q0.7 1.1 0.8 2.4zm-0.6 9.7c0-0.7-0.2-1.3-0.4-1.8q-0.4-0.9-1.3-1.5c-0.5-0.4-1.2-0.6-2-0.6h-3.6q-0.6 0-0.8-0.2c-0.2-0.2-0.3-0.4-0.3-0.8c0-0.4 0.1-0.6 0.3-0.8c0.1-0.1 0.5-0.2 0.8-0.3c0.7 0 2.9 0.1 4.1-0.6c0.5-0.2 0.8-0.7 1.1-1.2c0.2-0.4 0.3-1 0.3-1.5c-0.1-0.5-0.3-1.1-0.5-1.5c-0.3-0.5-0.7-0.8-1.3-1.2c-0.5-0.3-1.2-0.4-1.9-0.4h-2q-1.2 0-1.9 0.7q-0.7 0.7-0.7 1.8v11.3c0 0.7 0.3 1.3 0.7 1.8c0.5 0.5 1.1 0.7 1.9 0.7h3.7c0.8 0 1.6-0.2 2.1-0.6q0.8-0.6 1.2-1.4q0.3-0.9 0.5-1.9z" /><path fill-rule="evenodd" class="s0" d="m167.3 68.5q0 0 0 0.1c0 0-0.1 0-0.1 0.1c0 0 0 0 0 0.1c0 0 0 0-0.1 0.1q-0.2 0.2-0.5 0.2c-0.1 0-0.2 0.1-0.2 0.1c-0.1 0-0.3 0-0.5 0q0 0-0.1 0c-0.1 0-0.2-0.1-0.3-0.1q-0.2-0.1-0.3-0.3l-1.2-2.6h-11.3l-1.2 2.6q-0.1 0.2-0.3 0.3c-0.1 0.1-0.2 0.1-0.3 0.1c0 0-0.1 0-0.2 0c-0.2 0-0.4 0-0.6 0c-0.3-0.1-0.5-0.2-0.6-0.4q-0.1-0.1-0.1-0.3q0-0.1 0-0.3c0 0 0.1-0.1 0.1-0.1q0-0.3 0.2-0.6l3.1-6.7l4.5-10q0.1-0.2 0.2-0.3c0-0.1 0-0.1 0.1-0.2c0 0 0-0.1 0.1-0.1c0.1-0.1 0.1-0.2 0.2-0.3c0-0.1 0-0.1 0.1-0.1q0-0.1 0-0.1c0 0 0 0 0 0h0.1c0 0 0-0.1 0.1-0.1q0-0.1 0.1-0.1q0.1 0 0.1 0c0.1 0 0.1 0 0.2 0c0 0.1 0.1 0.1 0.1 0.1q0.1 0 0.1 0.1c0.2 0.1 0.3 0.3 0.4 0.4c0 0.1 0.1 0.2 0.1 0.3c0.1 0.1 0.1 0.1 0.1 0.2c0.1 0 0.1 0.1 0.1 0.2l3.7 8.1l4 8.6c0.1 0.2 0.1 0.5 0.2 0.7c0 0 0 0.1-0.1 0.3zm-13.5-4.6h0.1h-0.1zm0.1-0.1h9.3l-3.2-6.9c-0.4-0.7-0.8-1.1-1.3-1.2c-0.1 0-0.1 0-0.2 0q-0.2 0-0.4 0.1c-0.4 0.2-0.8 0.5-1.1 1.1z" /></g></svg>